<?xml version="1.0" standalone="no"?><!DOCTYPE svg PUBLIC "-//W3C//DTD SVG 1.1//EN" "http://www.w3.org/Graphics/SVG/1.1/DTD/svg11.dtd"><svg class="icon" width="200px" height="200.00px" viewBox="0 0 1024 1024" version="1.1" xmlns="http://www.w3.org/2000/svg"><path fill="#707070" d="M317.855379 94.273016L597.784832 94.273016c45.87231 0 66.46067 33.230335 84.881835 62.487478 1.083598 1.805996 2.528395 3.61199299 3.973192 5.417989 1.805996 2.528395 3.250794 4.695591 4.695591 6.501588L822.089594 363.005291c27.812346 41.17672 16.976367 97.52381-24.561552 125.336155-14.809171 10.11358-32.14673701 15.17037-50.206702 15.170371-20.949559 0-41.17672-7.223986-57.069488-20.227161L690.251852 831.119577c0 49.845503-38.648325 90.299824-85.965432 90.299823-47.317108 0-85.965432-40.454321-85.96543201-90.299823l0-123.891358c-11.197178 6.862787-23.839153 10.835979-37.20352799 10.835979-26.367549 0-49.845503-14.447972-64.29347401-37.564727-13.725573 11.558377-30.340741 18.421164-47.67830699 18.421164-31.424339 0-59.597884-21.671958-71.87865999-53.096296-9.752381 4.695591-20.22716 7.223986-31.06313901 7.223986-43.705115 0-79.102646-40.454321-79.102645-90.299824l0-272.705467c-0.361199-98.968607 74.768254-195.770018 130.754144-195.770018m429.827161 373.84127c10.835979 0 21.310758-3.250794 29.979541-9.029983 24.922751-16.615168 31.42433901-50.206702 14.809171-75.129453l-130.75414399-194.32522c-1.083598-1.805996-2.528395-3.61199299-3.97319301-5.779189-1.444797-2.167196-2.889594-4.334392-4.334391-6.140388l-0.361199-0.722399c-19.865961-31.785538-31.063139-45.87231-54.541094-45.87231l-279.929453 0c-30.70194 0-94.995414 75.490653-94.995415 159.288889l0 272.705467c0 29.257143 19.865961 54.179894 42.98271601 54.179894 10.47478 0 20.58836-5.05679 28.89594399-14.086772l28.534744-32.146737 3.250794 42.621516c2.167196 27.451146 20.949559 49.123104 42.982716 49.123104 14.44797201 0 28.534744-9.752381 36.48112899-25.645149l23.11675401-46.594709 10.835979 50.9291c5.05679 23.477954 22.394356 40.81552 41.537919 40.81552 15.892769 0 31.063139-11.919577 38.648325-30.34074l34.675132-86.687831L555.524515 831.119577c0 29.979541 22.394356 54.179894 49.845503 54.179894 27.451146 0 49.845503-24.200353 49.845502-54.179894l0-458.000706L702.532628 444.275132c10.11358 14.809171 26.728748 23.839153 45.149912 23.839154"  /><path fill="#707070" d="M554.440917 690.251852l-36.119929 0 0-126.058554 36.119929 0zM438.134744 668.579894l-36.119929 0 0-126.058554 36.119929 0zM325.440564 633.904762l-36.119929 0 0-126.058554 36.119929 0z"  /></svg>