<svg width="200" height="200" xmlns="http://www.w3.org/2000/svg" fill="none">
 <g>
  <title>Layer 1</title>
  <path stroke="null" fill-rule="evenodd" clip-rule="evenodd" d="m0,40.02635l0,120.07933c0,22.10602 17.87675,40.02642 39.92885,40.02642l119.78656,0c22.05253,0 39.92885,-17.9204 39.92885,-40.02642l0,-120.07933c0,-22.10595 -17.87633,-40.02635 -39.92885,-40.02635l-119.78656,0c-22.0521,0 -39.92885,17.9204 -39.92885,40.02635zm160.26949,-26.12832l-12.47732,0c-39.92885,0 -62.94353,25.57238 -62.94353,64.76461l0,6.71801c-4.59781,-1.32159 -9.35799,-1.99203 -14.14118,-1.99203c-28.33086,0 -51.29746,23.02234 -51.29746,51.42251c0,28.40017 22.9666,51.4218 51.29746,51.4218c28.33057,0 51.29753,-23.02162 51.29753,-51.4218c0,-3.45442 -0.34683,-6.90027 -1.03622,-10.28465l0.20439,0l39.09632,0c10.34863,-0.0386 18.71741,-8.45844 18.71741,-18.83172c0,-10.37399 -8.36878,-18.79383 -18.71741,-18.83172l-0.06837,0l-0.06338,0l-38.96457,0l-0.00071,-9.86794c0,-15.00991 10.81439,-25.85028 26.61971,-25.85028l12.18747,0l0.02635,0l0.26351,0c10.15136,-0.15396 18.3015,-8.44643 18.3015,-18.62351c0,-10.17707 -8.15014,-18.46948 -18.3015,-18.62329zm-74.31128,120.91309c0,-8.44343 -6.82834,-15.28795 -15.25075,-15.28795c-8.42248,0 -15.25061,6.84452 -15.25061,15.28795c0,8.44343 6.82813,15.28795 15.25061,15.28795c8.42241,0 15.25075,-6.84452 15.25075,-15.28795z" fill="#7C3AED" id="svg_1"/>
 </g>

</svg>